solid v1.1_ScreenSupport
facet normal -0.00048489525222129403 -0.00087222447717773 -0.9999995020504039
  outer loop
    vertex -0.49999999999999994 7.5 0.0
    vertex 0.6585038162933532 5.54246552096585 0.0
    vertex -0.49999999999999906 0.3694738077799483 0.00855513862618967
  endloop
endfacet
facet normal -0.00048489525222129403 -0.00087222447717773 -0.9999995020504039
  outer loop
    vertex 0.6585038162933532 5.54246552096585 0.0
    vertex -0.49999999999999994 7.5 0.0
    vertex 0.7713912937235848 5.815000000000001 0.0
  endloop
endfacet
facet normal -0.00048489525222129403 -0.00087222447717773 -0.9999995020504039
  outer loop
    vertex 0.7713912937235848 5.815000000000001 0.0
    vertex -0.49999999999999994 7.5 0.0
    vertex 0.9509693372592019 6.0490306627408 0.0
  endloop
endfacet
facet normal -0.00048489525222129403 -0.00087222447717773 -0.9999995020504039
  outer loop
    vertex 0.9509693372592019 6.0490306627408 0.0
    vertex -0.49999999999999994 7.5 0.0
    vertex 1.1850000000000005 6.2286087062764155 0.0
  endloop
endfacet
facet normal -0.00048489525222129403 -0.00087222447717773 -0.9999995020504039
  outer loop
    vertex 1.1850000000000005 6.2286087062764155 0.0
    vertex -0.49999999999999994 7.5 0.0
    vertex 1.4575344790341525 6.3414961837066475 0.0
  endloop
endfacet
facet normal -0.00048489525222129403 -0.00087222447717773 -0.9999995020504039
  outer loop
    vertex 1.4575344790341525 6.3414961837066475 0.0
    vertex -0.49999999999999994 7.5 0.0
    vertex 4.5 7.5 0.0
  endloop
endfacet
facet normal -0.00048489525222129403 -0.00087222447717773 -0.9999995020504039
  outer loop
    vertex -0.49999999999999906 0.3694738077799483 0.00855513862618967
    vertex 0.6585038162933532 5.54246552096585 0.0
    vertex 0.6200000000000001 5.25 0.0
  endloop
endfacet
facet normal -0.00048489525222129403 -0.00087222447717773 -0.9999995020504039
  outer loop
    vertex 1.4575344790341525 6.3414961837066475 0.0
    vertex 4.5 7.5 0.0
    vertex 1.7500000000000002 6.380000000000001 0.0
  endloop
endfacet
facet normal -0.00048489525222129403 -0.00087222447717773 -0.9999995020504039
  outer loop
    vertex 1.7500000000000002 6.380000000000001 0.0
    vertex 4.5 7.5 0.0
    vertex 2.042465520965849 6.3414961837066475 0.0
  endloop
endfacet
facet normal -0.00048489525222129403 -0.00087222447717773 -0.9999995020504039
  outer loop
    vertex 2.042465520965849 6.3414961837066475 0.0
    vertex 4.5 7.5 0.0
    vertex 2.315000000000001 6.2286087062764155 0.0
  endloop
endfacet
facet normal -0.00048489525222129403 -0.00087222447717773 -0.9999995020504039
  outer loop
    vertex 2.315000000000001 6.2286087062764155 0.0
    vertex 4.5 7.5 0.0
    vertex 2.5490306627407993 6.049030662740799 0.0
  endloop
endfacet
facet normal -0.00048489525222129403 -0.00087222447717773 -0.9999995020504039
  outer loop
    vertex 2.5490306627407993 6.049030662740799 0.0
    vertex 4.5 7.5 0.0
    vertex 2.728608706276416 5.815 0.0
  endloop
endfacet
facet normal -0.00048489525222129403 -0.00087222447717773 -0.9999995020504039
  outer loop
    vertex 2.728608706276416 5.815 0.0
    vertex 4.5 7.5 0.0
    vertex 2.8414961837066475 5.542465520965849 0.0
  endloop
endfacet
facet normal -0.00048489525222129403 -0.00087222447717773 -0.9999995020504039
  outer loop
    vertex 2.8414961837066475 5.542465520965849 0.0
    vertex 4.5 7.5 0.0
    vertex 2.8800000000000003 5.25 0.0
  endloop
endfacet
facet normal -0.00048489525222129403 -0.00087222447717773 -0.9999995020504039
  outer loop
    vertex -0.49999999999999906 0.3694738077799483 0.00855513862618967
    vertex 0.9509693372592013 4.450969337259202 0.0
    vertex 4.5 0.3694738077799483 0.00855513862618967
  endloop
endfacet
facet normal -0.00048489525222129403 -0.00087222447717773 -0.9999995020504039
  outer loop
    vertex 0.9509693372592013 4.450969337259202 0.0
    vertex -0.49999999999999906 0.3694738077799483 0.00855513862618967
    vertex 0.771391293723584 4.6850000000000005 0.0
  endloop
endfacet
facet normal -0.00048489525222129403 -0.00087222447717773 -0.9999995020504039
  outer loop
    vertex 0.771391293723584 4.6850000000000005 0.0
    vertex -0.49999999999999906 0.3694738077799483 0.00855513862618967
    vertex 0.6585038162933529 4.957534479034153 0.0
  endloop
endfacet
facet normal -0.00048489525222129403 -0.00087222447717773 -0.9999995020504039
  outer loop
    vertex 0.6585038162933529 4.957534479034153 0.0
    vertex -0.49999999999999906 0.3694738077799483 0.00855513862618967
    vertex 0.6200000000000001 5.25 0.0
  endloop
endfacet
facet normal -0.00048489525222129403 -0.00087222447717773 -0.9999995020504039
  outer loop
    vertex 4.5 0.3694738077799483 0.00855513862618967
    vertex 0.9509693372592013 4.450969337259202 0.0
    vertex 1.1849999999999996 4.2713912937235845 0.0
  endloop
endfacet
facet normal -0.00048489525222129403 -0.00087222447717773 -0.9999995020504039
  outer loop
    vertex 4.5 0.3694738077799483 0.00855513862618967
    vertex 1.1849999999999996 4.2713912937235845 0.0
    vertex 1.457534479034151 4.158503816293353 0.0
  endloop
endfacet
facet normal -0.00048489525222129403 -0.00087222447717773 -0.9999995020504039
  outer loop
    vertex 4.5 0.3694738077799483 0.00855513862618967
    vertex 1.457534479034151 4.158503816293353 0.0
    vertex 1.7500000000000002 4.12 0.0
  endloop
endfacet
facet normal -0.00048489525222129403 -0.00087222447717773 -0.9999995020504039
  outer loop
    vertex 4.5 0.3694738077799483 0.00855513862618967
    vertex 1.7500000000000002 4.12 0.0
    vertex 2.042465520965849 4.1585038162933525 0.0
  endloop
endfacet
facet normal -0.00048489525222129403 -0.00087222447717773 -0.9999995020504039
  outer loop
    vertex 4.5 0.3694738077799483 0.00855513862618967
    vertex 2.042465520965849 4.1585038162933525 0.0
    vertex 2.3150000000000004 4.2713912937235845 0.0
  endloop
endfacet
facet normal -0.00048489525222129403 -0.00087222447717773 -0.9999995020504039
  outer loop
    vertex 4.5 0.3694738077799483 0.00855513862618967
    vertex 2.3150000000000004 4.2713912937235845 0.0
    vertex 2.5490306627407993 4.450969337259202 0.0
  endloop
endfacet
facet normal -0.00048489525222129403 -0.00087222447717773 -0.9999995020504039
  outer loop
    vertex 4.5 0.3694738077799483 0.00855513862618967
    vertex 2.5490306627407993 4.450969337259202 0.0
    vertex 2.728608706276416 4.6850000000000005 0.0
  endloop
endfacet
facet normal -0.00048489525222129403 -0.00087222447717773 -0.9999995020504039
  outer loop
    vertex 4.5 0.3694738077799483 0.00855513862618967
    vertex 2.728608706276416 4.6850000000000005 0.0
    vertex 2.8414961837066475 4.957534479034152 0.0
  endloop
endfacet
facet normal -0.00048489525222129403 -0.00087222447717773 -0.9999995020504039
  outer loop
    vertex 4.5 0.3694738077799483 0.00855513862618967
    vertex 2.8414961837066475 4.957534479034152 0.0
    vertex 2.8800000000000003 5.25 0.0
  endloop
endfacet
facet normal -0.00048489525222129403 -0.00087222447717773 -0.9999995020504039
  outer loop
    vertex 4.5 0.3694738077799483 0.00855513862618967
    vertex 2.8800000000000003 5.25 0.0
    vertex 4.5 7.5 0.0
  endloop
endfacet
facet normal -0.00048489525222129403 -0.00087222447717773 -0.9999995020504039
  outer loop
    vertex 4.5 0.3694738077799483 0.00855513862618967
    vertex 4.5 7.5 0.0
    vertex 4.5 0.49999999999999994 0.0
  endloop
endfacet
facet normal 1.0 -3.8428276623913476e-32 -9.086931824492637e-33
  outer loop
    vertex 4.5 7.5 0.0
    vertex 4.5 4.5 11.999999999999998
    vertex 4.5 0.49999999999999994 0.0
  endloop
endfacet
facet normal 1.0 -3.8428276623913476e-32 -9.086931824492637e-33
  outer loop
    vertex 4.5 4.5 11.999999999999998
    vertex 4.5 7.5 0.0
    vertex 4.5 6.499999999999999 11.999999999999998
  endloop
endfacet
facet normal 1.0 -3.8428276623913476e-32 -9.086931824492637e-33
  outer loop
    vertex 4.5 6.499999999999999 11.999999999999998
    vertex 4.5 7.5 0.0
    vertex 4.5 6.63052619222005 11.99144486137381
  endloop
endfacet
facet normal 1.0 -3.8428276623913476e-32 -9.086931824492637e-33
  outer loop
    vertex 4.5 6.63052619222005 11.99144486137381
    vertex 4.5 7.5 0.0
    vertex 4.5 6.758819045102521 11.965925826289066
  endloop
endfacet
facet normal 1.0 -3.8428276623913476e-32 -9.086931824492637e-33
  outer loop
    vertex 4.5 6.758819045102521 11.965925826289066
    vertex 4.5 7.5 0.0
    vertex 4.5 6.8826834323650905 11.923879532511284
  endloop
endfacet
facet normal 1.0 -3.8428276623913476e-32 -9.086931824492637e-33
  outer loop
    vertex 4.5 6.8826834323650905 11.923879532511284
    vertex 4.5 7.5 0.0
    vertex 4.5 7.0 11.866025403784436
  endloop
endfacet
facet normal 1.0 -3.8428276623913476e-32 -9.086931824492637e-33
  outer loop
    vertex 4.5 7.0 11.866025403784436
    vertex 4.5 7.5 0.0
    vertex 4.5 7.10876142900872 11.793353340291233
  endloop
endfacet
facet normal 1.0 -3.8428276623913476e-32 -9.086931824492637e-33
  outer loop
    vertex 4.5 7.10876142900872 11.793353340291233
    vertex 4.5 7.5 0.0
    vertex 4.5 7.207106781186547 11.707106781186544
  endloop
endfacet
facet normal 1.0 -3.8428276623913476e-32 -9.086931824492637e-33
  outer loop
    vertex 4.5 7.207106781186547 11.707106781186544
    vertex 4.5 7.5 0.0
    vertex 4.5 7.293353340291235 11.608761429008718
  endloop
endfacet
facet normal 1.0 -3.8428276623913476e-32 -9.086931824492637e-33
  outer loop
    vertex 4.5 7.293353340291235 11.608761429008718
    vertex 4.5 7.5 0.0
    vertex 4.5 7.366025403784438 11.499999999999996
  endloop
endfacet
facet normal 1.0 -3.8428276623913476e-32 -9.086931824492637e-33
  outer loop
    vertex 4.5 7.366025403784438 11.499999999999996
    vertex 4.5 7.5 0.0
    vertex 4.5 7.423879532511287 11.382683432365088
  endloop
endfacet
facet normal 1.0 -3.8428276623913476e-32 -9.086931824492637e-33
  outer loop
    vertex 4.5 7.423879532511287 11.382683432365088
    vertex 4.5 7.5 0.0
    vertex 4.5 7.465925826289069 11.258819045102518
  endloop
endfacet
facet normal 1.0 -3.8428276623913476e-32 -9.086931824492637e-33
  outer loop
    vertex 4.5 7.465925826289069 11.258819045102518
    vertex 4.5 7.5 0.0
    vertex 4.5 7.491444861373811 11.130526192220048
  endloop
endfacet
facet normal 1.0 -3.8428276623913476e-32 -9.086931824492637e-33
  outer loop
    vertex 4.5 7.491444861373811 11.130526192220048
    vertex 4.5 7.5 0.0
    vertex 4.5 7.5 10.999999999999996
  endloop
endfacet
facet normal 1.0 -3.8428276623913476e-32 -9.086931824492637e-33
  outer loop
    vertex 4.5 -0.49144486137381027 0.8694738077799483
    vertex 4.5 -0.49999999999999994 24.0
    vertex 4.5 -0.49999999999999994 0.9999999999999998
  endloop
endfacet
facet normal 1.0 -3.8428276623913476e-32 -9.086931824492637e-33
  outer loop
    vertex 4.5 -0.49999999999999994 24.0
    vertex 4.5 -0.49144486137381027 0.8694738077799483
    vertex 4.5 4.5 24.0
  endloop
endfacet
facet normal 1.0 -3.8428276623913476e-32 -9.086931824492637e-33
  outer loop
    vertex 4.5 4.5 24.0
    vertex 4.5 -0.49144486137381027 0.8694738077799483
    vertex 4.5 -0.4659258262890682 0.7411809548974791
  endloop
endfacet
facet normal 1.0 -3.8428276623913476e-32 -9.086931824492637e-33
  outer loop
    vertex 4.5 4.5 24.0
    vertex 4.5 -0.4659258262890682 0.7411809548974791
    vertex 4.5 -0.4238795325112867 0.61731656763491
  endloop
endfacet
facet normal 1.0 -3.8428276623913476e-32 -9.086931824492637e-33
  outer loop
    vertex 4.5 4.5 24.0
    vertex 4.5 -0.4238795325112867 0.61731656763491
    vertex 4.5 -0.36602540378443865 0.49999999999999994
  endloop
endfacet
facet normal 1.0 -3.8428276623913476e-32 -9.086931824492637e-33
  outer loop
    vertex 4.5 4.5 24.0
    vertex 4.5 -0.36602540378443865 0.49999999999999994
    vertex 4.5 -0.2933533402912353 0.39123857099127934
  endloop
endfacet
facet normal 1.0 -3.8428276623913476e-32 -9.086931824492637e-33
  outer loop
    vertex 4.5 4.5 24.0
    vertex 4.5 -0.2933533402912353 0.39123857099127934
    vertex 4.5 -0.20710678118654774 0.2928932188134525
  endloop
endfacet
facet normal 1.0 -3.8428276623913476e-32 -9.086931824492637e-33
  outer loop
    vertex 4.5 4.5 24.0
    vertex 4.5 -0.20710678118654774 0.2928932188134525
    vertex 4.5 -0.10876142900872082 0.2066466597087649
  endloop
endfacet
facet normal 1.0 -3.8428276623913476e-32 -9.086931824492637e-33
  outer loop
    vertex 4.5 4.5 24.0
    vertex 4.5 -0.10876142900872082 0.2066466597087649
    vertex 4.5 -1.762479051592436e-16 0.1339745962155613
  endloop
endfacet
facet normal 1.0 -3.8428276623913476e-32 -9.086931824492637e-33
  outer loop
    vertex 4.5 4.5 24.0
    vertex 4.5 -1.762479051592436e-16 0.1339745962155613
    vertex 4.5 0.11731656763491005 0.07612046748871326
  endloop
endfacet
facet normal 1.0 -3.8428276623913476e-32 -9.086931824492637e-33
  outer loop
    vertex 4.5 4.5 24.0
    vertex 4.5 0.11731656763491005 0.07612046748871326
    vertex 4.5 0.2411809548974791 0.03407417371093175
  endloop
endfacet
facet normal 1.0 -3.8428276623913476e-32 -9.086931824492637e-33
  outer loop
    vertex 4.5 4.5 24.0
    vertex 4.5 0.2411809548974791 0.03407417371093175
    vertex 4.5 0.3694738077799483 0.00855513862618967
  endloop
endfacet
facet normal 1.0 -3.8428276623913476e-32 -9.086931824492637e-33
  outer loop
    vertex 4.5 4.5 24.0
    vertex 4.5 0.3694738077799483 0.00855513862618967
    vertex 4.5 0.49999999999999994 0.0
  endloop
endfacet
facet normal 1.0 -3.8428276623913476e-32 -9.086931824492637e-33
  outer loop
    vertex 4.5 4.5 24.0
    vertex 4.5 0.49999999999999994 0.0
    vertex 4.5 4.5 11.999999999999998
  endloop
endfacet
facet normal -0.0 1.0 -0.0
  outer loop
    vertex -0.49999999999999994 4.5 12.0
    vertex 4.5 4.5 24.0
    vertex 4.5 4.5 11.999999999999998
  endloop
endfacet
facet normal -0.0 1.0 -0.0
  outer loop
    vertex 4.5 4.5 24.0
    vertex -0.49999999999999994 4.5 12.0
    vertex -0.49999999999999994 4.5 24.0
  endloop
endfacet
facet normal -1.0 -9.422442589133572e-17 -2.7198637031050682e-17
  outer loop
    vertex -0.49999999999999994 4.5 24.0
    vertex -0.49999999999999906 -0.49144486137381027 0.8694738077799483
    vertex -0.49999999999999994 -0.49999999999999994 24.0
  endloop
endfacet
facet normal -1.0 -9.422442589133572e-17 -2.7198637031050682e-17
  outer loop
    vertex -0.49999999999999906 -0.49144486137381027 0.8694738077799483
    vertex -0.49999999999999994 4.5 24.0
    vertex -0.49999999999999906 -0.4659258262890682 0.7411809548974791
  endloop
endfacet
facet normal -1.0 -9.422442589133572e-17 -2.7198637031050682e-17
  outer loop
    vertex -0.49999999999999906 -0.4659258262890682 0.7411809548974791
    vertex -0.49999999999999994 4.5 24.0
    vertex -0.49999999999999906 -0.4238795325112867 0.61731656763491
  endloop
endfacet
facet normal -1.0 -9.422442589133572e-17 -2.7198637031050682e-17
  outer loop
    vertex -0.49999999999999906 -0.4238795325112867 0.61731656763491
    vertex -0.49999999999999994 4.5 24.0
    vertex -0.49999999999999906 -0.36602540378443865 0.49999999999999994
  endloop
endfacet
facet normal -1.0 -9.422442589133572e-17 -2.7198637031050682e-17
  outer loop
    vertex -0.49999999999999906 -0.36602540378443865 0.49999999999999994
    vertex -0.49999999999999994 4.5 24.0
    vertex -0.49999999999999906 -0.2933533402912353 0.39123857099127934
  endloop
endfacet
facet normal -1.0 -9.422442589133572e-17 -2.7198637031050682e-17
  outer loop
    vertex -0.49999999999999906 -0.2933533402912353 0.39123857099127934
    vertex -0.49999999999999994 4.5 24.0
    vertex -0.49999999999999906 -0.20710678118654774 0.2928932188134525
  endloop
endfacet
facet normal -1.0 -9.422442589133572e-17 -2.7198637031050682e-17
  outer loop
    vertex -0.49999999999999906 -0.20710678118654774 0.2928932188134525
    vertex -0.49999999999999994 4.5 24.0
    vertex -0.49999999999999906 -0.10876142900872082 0.2066466597087649
  endloop
endfacet
facet normal -1.0 -9.422442589133572e-17 -2.7198637031050682e-17
  outer loop
    vertex -0.49999999999999906 -0.10876142900872082 0.2066466597087649
    vertex -0.49999999999999994 4.5 24.0
    vertex -0.49999999999999906 -1.762479051592436e-16 0.1339745962155613
  endloop
endfacet
facet normal -1.0 -9.422442589133572e-17 -2.7198637031050682e-17
  outer loop
    vertex -0.49999999999999906 -1.762479051592436e-16 0.1339745962155613
    vertex -0.49999999999999994 4.5 24.0
    vertex -0.49999999999999906 0.11731656763491005 0.07612046748871326
  endloop
endfacet
facet normal -1.0 -9.422442589133572e-17 -2.7198637031050682e-17
  outer loop
    vertex -0.49999999999999906 0.11731656763491005 0.07612046748871326
    vertex -0.49999999999999994 4.5 24.0
    vertex -0.49999999999999906 0.2411809548974791 0.03407417371093175
  endloop
endfacet
facet normal -1.0 -9.422442589133572e-17 -2.7198637031050682e-17
  outer loop
    vertex -0.49999999999999906 0.2411809548974791 0.03407417371093175
    vertex -0.49999999999999994 4.5 24.0
    vertex -0.49999999999999906 0.3694738077799483 0.00855513862618967
  endloop
endfacet
facet normal -1.0 -9.422442589133572e-17 -2.7198637031050682e-17
  outer loop
    vertex -0.49999999999999906 0.3694738077799483 0.00855513862618967
    vertex -0.49999999999999994 4.5 24.0
    vertex -0.49999999999999994 4.5 12.0
  endloop
endfacet
facet normal -1.0 -9.422442589133572e-17 -2.7198637031050682e-17
  outer loop
    vertex -0.49999999999999906 0.3694738077799483 0.00855513862618967
    vertex -0.49999999999999994 4.5 12.0
    vertex -0.49999999999999994 7.5 0.0
  endloop
endfacet
facet normal -1.0 -9.422442589133572e-17 -2.7198637031050682e-17
  outer loop
    vertex -0.49999999999999994 7.5 0.0
    vertex -0.49999999999999994 4.5 12.0
    vertex -0.5000000000000001 6.63052619222005 11.99144486137381
  endloop
endfacet
facet normal -1.0 -9.422442589133572e-17 -2.7198637031050682e-17
  outer loop
    vertex -0.49999999999999994 7.5 0.0
    vertex -0.5000000000000001 6.63052619222005 11.99144486137381
    vertex -0.5000000000000001 6.758819045102521 11.965925826289066
  endloop
endfacet
facet normal -1.0 -9.422442589133572e-17 -2.7198637031050682e-17
  outer loop
    vertex -0.49999999999999994 7.5 0.0
    vertex -0.5000000000000001 6.758819045102521 11.965925826289066
    vertex -0.5000000000000001 6.8826834323650905 11.923879532511284
  endloop
endfacet
facet normal -1.0 -9.422442589133572e-17 -2.7198637031050682e-17
  outer loop
    vertex -0.49999999999999994 7.5 0.0
    vertex -0.5000000000000001 6.8826834323650905 11.923879532511284
    vertex -0.5000000000000001 7.0 11.866025403784436
  endloop
endfacet
facet normal -1.0 -9.422442589133572e-17 -2.7198637031050682e-17
  outer loop
    vertex -0.49999999999999994 7.5 0.0
    vertex -0.5000000000000001 7.0 11.866025403784436
    vertex -0.5000000000000001 7.10876142900872 11.793353340291233
  endloop
endfacet
facet normal -1.0 -9.422442589133572e-17 -2.7198637031050682e-17
  outer loop
    vertex -0.49999999999999994 7.5 0.0
    vertex -0.5000000000000001 7.10876142900872 11.793353340291233
    vertex -0.5000000000000001 7.207106781186547 11.707106781186544
  endloop
endfacet
facet normal -1.0 -9.422442589133572e-17 -2.7198637031050682e-17
  outer loop
    vertex -0.49999999999999994 7.5 0.0
    vertex -0.5000000000000001 7.207106781186547 11.707106781186544
    vertex -0.5000000000000001 7.293353340291235 11.608761429008718
  endloop
endfacet
facet normal -1.0 -9.422442589133572e-17 -2.7198637031050682e-17
  outer loop
    vertex -0.49999999999999994 7.5 0.0
    vertex -0.5000000000000001 7.293353340291235 11.608761429008718
    vertex -0.5000000000000001 7.366025403784438 11.499999999999996
  endloop
endfacet
facet normal -1.0 -9.422442589133572e-17 -2.7198637031050682e-17
  outer loop
    vertex -0.49999999999999994 7.5 0.0
    vertex -0.5000000000000001 7.366025403784438 11.499999999999996
    vertex -0.5000000000000001 7.423879532511287 11.382683432365088
  endloop
endfacet
facet normal -1.0 -9.422442589133572e-17 -2.7198637031050682e-17
  outer loop
    vertex -0.49999999999999994 7.5 0.0
    vertex -0.5000000000000001 7.423879532511287 11.382683432365088
    vertex -0.5000000000000001 7.465925826289069 11.258819045102518
  endloop
endfacet
facet normal -1.0 -9.422442589133572e-17 -2.7198637031050682e-17
  outer loop
    vertex -0.49999999999999994 7.5 0.0
    vertex -0.5000000000000001 7.465925826289069 11.258819045102518
    vertex -0.5000000000000001 7.491444861373811 11.130526192220048
  endloop
endfacet
facet normal -0.0004876699708908316 -0.9999998458076729 -0.0002656362743949697
  outer loop
    vertex 4.5 -0.49999999999999994 0.9999999999999998
    vertex -0.49999999999999906 -0.49144486137381027 0.8694738077799483
    vertex 4.5 -0.49144486137381027 0.8694738077799483
  endloop
endfacet
facet normal -0.0004876699708908316 -0.9999998458076729 -0.0002656362743949697
  outer loop
    vertex -0.49999999999999906 -0.49144486137381027 0.8694738077799483
    vertex 4.5 -0.49999999999999994 0.9999999999999998
    vertex -0.49999999999999994 -0.49999999999999994 24.0
  endloop
endfacet
facet normal -0.0004876699708908316 -0.9999998458076729 -0.0002656362743949697
  outer loop
    vertex -0.49999999999999994 -0.49999999999999994 24.0
    vertex 4.5 -0.49999999999999994 0.9999999999999998
    vertex 4.5 -0.49999999999999994 24.0
  endloop
endfacet
facet normal -0.0 -0.0 1.0
  outer loop
    vertex -0.49999999999999994 -0.49999999999999994 24.0
    vertex 1.266034641785453 1.194381269363858 23.999999999999986
    vertex -0.49999999999999994 4.5 24.0
  endloop
endfacet
facet normal -0.0 -0.0 1.0
  outer loop
    vertex 1.266034641785453 1.194381269363858 23.999999999999986
    vertex -0.49999999999999994 -0.49999999999999994 24.0
    vertex 1.4433671576311158 0.9586445440815525 23.999999999999986
  endloop
endfacet
facet normal -0.0 -0.0 1.0
  outer loop
    vertex 1.4433671576311158 0.9586445440815525 23.999999999999986
    vertex -0.49999999999999994 -0.49999999999999994 24.0
    vertex 1.6756703686604189 0.7768373853433642 23.999999999999986
  endloop
endfacet
facet normal -0.0 -0.0 1.0
  outer loop
    vertex 1.6756703686604189 0.7768373853433642 23.999999999999986
    vertex -0.49999999999999994 -0.49999999999999994 24.0
    vertex 4.5 -0.49999999999999994 24.0
  endloop
endfacet
facet normal -0.0 -0.0 1.0
  outer loop
    vertex -0.49999999999999994 4.5 24.0
    vertex 1.266034641785453 1.194381269363858 23.999999999999986
    vertex 1.1557577390224738 1.4679824929356495 23.999999999999986
  endloop
endfacet
facet normal -0.0 -0.0 1.0
  outer loop
    vertex -0.49999999999999994 4.5 24.0
    vertex 1.1557577390224738 1.4679824929356495 23.999999999999986
    vertex 1.1200516380242762 1.7608027435579114 23.999999999999986
  endloop
endfacet
facet normal -0.0 -0.0 1.0
  outer loop
    vertex 1.6756703686604189 0.7768373853433642 23.999999999999986
    vertex 4.5 -0.49999999999999994 24.0
    vertex 1.9471131949409215 0.6613496505667659 23.999999999999986
  endloop
endfacet
facet normal -0.0 -0.0 1.0
  outer loop
    vertex 1.9471131949409215 0.6613496505667659 23.999999999999986
    vertex 4.5 -0.49999999999999994 24.0
    vertex 2.239197256442089 0.6200516380242763 23.999999999999986
  endloop
endfacet
facet normal -0.0 -0.0 1.0
  outer loop
    vertex 2.239197256442089 0.6200516380242763 23.999999999999986
    vertex 4.5 -0.49999999999999994 24.0
    vertex 2.5320175070643502 0.655757739022474 23.999999999999986
  endloop
endfacet
facet normal -0.0 -0.0 1.0
  outer loop
    vertex 2.5320175070643502 0.655757739022474 23.999999999999986
    vertex 4.5 -0.49999999999999994 24.0
    vertex 2.805618730636142 0.7660346417854536 23.999999999999986
  endloop
endfacet
facet normal -0.0 -0.0 1.0
  outer loop
    vertex 2.805618730636142 0.7660346417854536 23.999999999999986
    vertex 4.5 -0.49999999999999994 24.0
    vertex 3.0413554559184477 0.9433671576311159 23.999999999999986
  endloop
endfacet
facet normal -0.0 -0.0 1.0
  outer loop
    vertex 3.0413554559184477 0.9433671576311159 23.999999999999986
    vertex 4.5 -0.49999999999999994 24.0
    vertex 3.223162614656636 1.1756703686604186 23.999999999999986
  endloop
endfacet
facet normal -0.0 -0.0 1.0
  outer loop
    vertex 3.223162614656636 1.1756703686604186 23.999999999999986
    vertex 4.5 -0.49999999999999994 24.0
    vertex 3.3386503494332342 1.4471131949409217 23.999999999999986
  endloop
endfacet
facet normal -0.0 -0.0 1.0
  outer loop
    vertex 3.3386503494332342 1.4471131949409217 23.999999999999986
    vertex 4.5 -0.49999999999999994 24.0
    vertex 3.3799483619757242 1.739197256442089 23.999999999999986
  endloop
endfacet
facet normal -0.0 -0.0 1.0
  outer loop
    vertex -0.49999999999999994 4.5 24.0
    vertex 1.694381269363858 2.7339653582145473 23.999999999999986
    vertex 4.5 4.5 24.0
  endloop
endfacet
facet normal -0.0 -0.0 1.0
  outer loop
    vertex 1.694381269363858 2.7339653582145473 23.999999999999986
    vertex -0.49999999999999994 4.5 24.0
    vertex 1.4586445440815528 2.556632842368885 23.999999999999986
  endloop
endfacet
facet normal -0.0 -0.0 1.0
  outer loop
    vertex 1.4586445440815528 2.556632842368885 23.999999999999986
    vertex -0.49999999999999994 4.5 24.0
    vertex 1.276837385343364 2.3243296313395816 23.999999999999986
  endloop
endfacet
facet normal -0.0 -0.0 1.0
  outer loop
    vertex 1.276837385343364 2.3243296313395816 23.999999999999986
    vertex -0.49999999999999994 4.5 24.0
    vertex 1.1613496505667655 2.052886805059079 23.999999999999986
  endloop
endfacet
facet normal -0.0 -0.0 1.0
  outer loop
    vertex 1.1613496505667655 2.052886805059079 23.999999999999986
    vertex -0.49999999999999994 4.5 24.0
    vertex 1.1200516380242762 1.7608027435579114 23.999999999999986
  endloop
endfacet
facet normal -0.0 -0.0 1.0
  outer loop
    vertex 4.5 4.5 24.0
    vertex 1.694381269363858 2.7339653582145473 23.999999999999986
    vertex 1.9679824929356504 2.844242260977527 23.999999999999986
  endloop
endfacet
facet normal -0.0 -0.0 1.0
  outer loop
    vertex 4.5 4.5 24.0
    vertex 1.9679824929356504 2.844242260977527 23.999999999999986
    vertex 2.2608027435579117 2.8799483619757242 23.999999999999986
  endloop
endfacet
facet normal -0.0 -0.0 1.0
  outer loop
    vertex 4.5 4.5 24.0
    vertex 2.2608027435579117 2.8799483619757242 23.999999999999986
    vertex 2.552886805059079 2.8386503494332347 23.999999999999986
  endloop
endfacet
facet normal -0.0 -0.0 1.0
  outer loop
    vertex 4.5 4.5 24.0
    vertex 2.552886805059079 2.8386503494332347 23.999999999999986
    vertex 2.824329631339582 2.723162614656636 23.999999999999986
  endloop
endfacet
facet normal -0.0 -0.0 1.0
  outer loop
    vertex 4.5 4.5 24.0
    vertex 2.824329631339582 2.723162614656636 23.999999999999986
    vertex 3.056632842368885 2.5413554559184477 23.999999999999986
  endloop
endfacet
facet normal -0.0 -0.0 1.0
  outer loop
    vertex 4.5 4.5 24.0
    vertex 3.056632842368885 2.5413554559184477 23.999999999999986
    vertex 3.2339653582145473 2.305618730636142 23.999999999999986
  endloop
endfacet
facet normal -0.0 -0.0 1.0
  outer loop
    vertex 4.5 4.5 24.0
    vertex 3.2339653582145473 2.305618730636142 23.999999999999986
    vertex 3.3442422609775266 2.0320175070643502 23.999999999999986
  endloop
endfacet
facet normal -0.0 -0.0 1.0
  outer loop
    vertex 4.5 4.5 24.0
    vertex 3.3442422609775266 2.0320175070643502 23.999999999999986
    vertex 3.3799483619757242 1.739197256442089 23.999999999999986
  endloop
endfacet
facet normal -0.0 -0.0 1.0
  outer loop
    vertex 4.5 4.5 24.0
    vertex 3.3799483619757242 1.739197256442089 23.999999999999986
    vertex 4.5 -0.49999999999999994 24.0
  endloop
endfacet
facet normal 0.0 0.8968727415326877 0.4422886902190027
  outer loop
    vertex -0.5000000000000001 7.366025403784438 11.499999999999996
    vertex 4.5 7.423879532511287 11.382683432365088
    vertex -0.5000000000000001 7.423879532511287 11.382683432365088
  endloop
endfacet
facet normal 0.0 0.8968727415326877 0.4422886902190027
  outer loop
    vertex 4.5 7.423879532511287 11.382683432365088
    vertex -0.5000000000000001 7.366025403784438 11.499999999999996
    vertex 4.5 7.366025403784438 11.499999999999996
  endloop
endfacet
facet normal -0.0004745067147233769 0.003038343326133348 0.9999952716454266
  outer loop
    vertex -0.49999999999999994 4.5 12.0
    vertex 4.5 6.63052619222005 11.99144486137381
    vertex -0.5000000000000001 6.63052619222005 11.99144486137381
  endloop
endfacet
facet normal -0.0004745067147233769 0.003038343326133348 0.9999952716454266
  outer loop
    vertex 4.5 6.63052619222005 11.99144486137381
    vertex -0.49999999999999994 4.5 12.0
    vertex 4.5 4.5 11.999999999999998
  endloop
endfacet
facet normal -0.0004745067147233769 0.003038343326133348 0.9999952716454266
  outer loop
    vertex 4.5 6.63052619222005 11.99144486137381
    vertex 4.5 4.5 11.999999999999998
    vertex 4.5 6.499999999999999 11.999999999999998
  endloop
endfacet
facet normal -0.00048635294204226793 0.9999997275700663 0.0005552662504632584
  outer loop
    vertex -0.5000000000000001 7.491444861373811 11.130526192220048
    vertex 4.5 7.5 0.0
    vertex -0.49999999999999994 7.5 0.0
  endloop
endfacet
facet normal -0.00048635294204226793 0.9999997275700663 0.0005552662504632584
  outer loop
    vertex 4.5 7.5 0.0
    vertex -0.5000000000000001 7.491444861373811 11.130526192220048
    vertex 4.5 7.5 10.999999999999996
  endloop
endfacet
facet normal -0.00048635294204226793 0.9999997275700663 0.0005552662504632584
  outer loop
    vertex 4.5 7.5 10.999999999999996
    vertex -0.5000000000000001 7.491444861373811 11.130526192220048
    vertex 4.5 7.491444861373811 11.130526192220048
  endloop
endfacet
facet normal 0.0 0.9469301294951048 0.3214394653031638
  outer loop
    vertex -0.5000000000000001 7.423879532511287 11.382683432365088
    vertex 4.5 7.465925826289069 11.258819045102518
    vertex -0.5000000000000001 7.465925826289069 11.258819045102518
  endloop
endfacet
facet normal 0.0 0.9469301294951048 0.3214394653031638
  outer loop
    vertex 4.5 7.465925826289069 11.258819045102518
    vertex -0.5000000000000001 7.423879532511287 11.382683432365088
    vertex 4.5 7.423879532511287 11.382683432365088
  endloop
endfacet
facet normal 0.0 0.8314696123025453 0.5555702330196023
  outer loop
    vertex -0.5000000000000001 7.293353340291235 11.608761429008718
    vertex 4.5 7.366025403784438 11.499999999999996
    vertex -0.5000000000000001 7.366025403784438 11.499999999999996
  endloop
endfacet
facet normal 0.0 0.8314696123025453 0.5555702330196023
  outer loop
    vertex 4.5 7.366025403784438 11.499999999999996
    vertex -0.5000000000000001 7.293353340291235 11.608761429008718
    vertex 4.5 7.293353340291235 11.608761429008718
  endloop
endfacet
facet normal -0.2588190451025211 0.9659258262890682 0.0
  outer loop
    vertex 2.042465520965849 4.1585038162933525 10.0
    vertex 2.3150000000000004 4.2713912937235845 0.0
    vertex 2.042465520965849 4.1585038162933525 0.0
  endloop
endfacet
facet normal -0.5000000000000002 0.8660254037844386 0.0
  outer loop
    vertex 2.3150000000000004 4.2713912937235845 0.0
    vertex 2.042465520965849 4.1585038162933525 10.0
    vertex 2.3150000000000004 4.2713912937235845 10.0
  endloop
endfacet
facet normal 1.0158665281037473e-15 1.0 0.0
  outer loop
    vertex 1.7500000000000002 4.12 10.0
    vertex 2.042465520965849 4.1585038162933525 0.0
    vertex 1.7500000000000002 4.12 0.0
  endloop
endfacet
facet normal -0.2588190451025211 0.9659258262890682 0.0
  outer loop
    vertex 2.042465520965849 4.1585038162933525 0.0
    vertex 1.7500000000000002 4.12 10.0
    vertex 2.042465520965849 4.1585038162933525 10.0
  endloop
endfacet
facet normal 1.4257775833035045e-16 -1.0 0.0
  outer loop
    vertex 1.7500000000000002 6.380000000000001 10.0
    vertex 1.4575344790341525 6.3414961837066475 0.0
    vertex 1.7500000000000002 6.380000000000001 0.0
  endloop
endfacet
facet normal 0.258819045102521 -0.9659258262890683 0.0
  outer loop
    vertex 1.4575344790341525 6.3414961837066475 0.0
    vertex 1.7500000000000002 6.380000000000001 10.0
    vertex 1.4575344790341525 6.3414961837066475 10.0
  endloop
endfacet
facet normal -0.8660254037844388 0.4999999999999998 0.0
  outer loop
    vertex 2.728608706276416 4.6850000000000005 10.0
    vertex 2.5490306627407993 4.450969337259202 0.0
    vertex 2.5490306627407993 4.450969337259202 10.0
  endloop
endfacet
facet normal -0.7071067811865475 0.7071067811865475 0.0
  outer loop
    vertex 2.5490306627407993 4.450969337259202 0.0
    vertex 2.728608706276416 4.6850000000000005 10.0
    vertex 2.728608706276416 4.6850000000000005 0.0
  endloop
endfacet
facet normal 0.0 -0.19509032201612783 -0.9807852804032304
  outer loop
    vertex 4.5 0.3694738077799483 0.00855513862618967
    vertex -0.49999999999999906 0.2411809548974791 0.03407417371093175
    vertex -0.49999999999999906 0.3694738077799483 0.00855513862618967
  endloop
endfacet
facet normal 0.0 -0.19509032201612783 -0.9807852804032304
  outer loop
    vertex -0.49999999999999906 0.2411809548974791 0.03407417371093175
    vertex 4.5 0.3694738077799483 0.00855513862618967
    vertex 4.5 0.2411809548974791 0.03407417371093175
  endloop
endfacet
facet normal -0.8660254037844388 -0.4999999999999998 0.0
  outer loop
    vertex 2.728608706276416 5.815 10.0
    vertex 2.8414961837066475 5.542465520965849 0.0
    vertex 2.8414961837066475 5.542465520965849 10.0
  endloop
endfacet
facet normal -0.9659258262890682 -0.2588190451025211 0.0
  outer loop
    vertex 2.8414961837066475 5.542465520965849 0.0
    vertex 2.728608706276416 5.815 10.0
    vertex 2.728608706276416 5.815 0.0
  endloop
endfacet
facet normal -1.0 0.0 0.0
  outer loop
    vertex 2.8800000000000003 5.25 10.0
    vertex 2.8414961837066475 4.957534479034152 0.0
    vertex 2.8414961837066475 4.957534479034152 10.0
  endloop
endfacet
facet normal -0.9659258262890682 0.2588190451025211 0.0
  outer loop
    vertex 2.8414961837066475 4.957534479034152 0.0
    vertex 2.8800000000000003 5.25 10.0
    vertex 2.8800000000000003 5.25 0.0
  endloop
endfacet
facet normal -0.5000000000000002 0.8660254037844386 0.0
  outer loop
    vertex 2.3150000000000004 4.2713912937235845 10.0
    vertex 2.5490306627407993 4.450969337259202 0.0
    vertex 2.3150000000000004 4.2713912937235845 0.0
  endloop
endfacet
facet normal -0.7071067811865475 0.7071067811865475 0.0
  outer loop
    vertex 2.5490306627407993 4.450969337259202 0.0
    vertex 2.3150000000000004 4.2713912937235845 10.0
    vertex 2.5490306627407993 4.450969337259202 10.0
  endloop
endfacet
facet normal -0.7071067811865479 -0.7071067811865474 0.0
  outer loop
    vertex 2.5490306627407993 6.049030662740799 10.0
    vertex 2.315000000000001 6.2286087062764155 0.0
    vertex 2.5490306627407993 6.049030662740799 0.0
  endloop
endfacet
facet normal -0.5000000000000003 -0.8660254037844386 0.0
  outer loop
    vertex 2.315000000000001 6.2286087062764155 0.0
    vertex 2.5490306627407993 6.049030662740799 10.0
    vertex 2.315000000000001 6.2286087062764155 10.0
  endloop
endfacet
facet normal 0.0 0.7518398074789766 0.6593458151000698
  outer loop
    vertex -0.5000000000000001 7.207106781186547 11.707106781186544
    vertex 4.5 7.293353340291235 11.608761429008718
    vertex -0.5000000000000001 7.293353340291235 11.608761429008718
  endloop
endfacet
facet normal 0.0 0.7518398074789766 0.6593458151000698
  outer loop
    vertex 4.5 7.293353340291235 11.608761429008718
    vertex -0.5000000000000001 7.207106781186547 11.707106781186544
    vertex 4.5 7.207106781186547 11.707106781186544
  endloop
endfacet
facet normal -0.9659258262890682 0.2588190451025211 0.0
  outer loop
    vertex 2.8414961837066475 4.957534479034152 10.0
    vertex 2.728608706276416 4.6850000000000005 0.0
    vertex 2.728608706276416 4.6850000000000005 10.0
  endloop
endfacet
facet normal -0.8660254037844388 0.4999999999999998 0.0
  outer loop
    vertex 2.728608706276416 4.6850000000000005 0.0
    vertex 2.8414961837066475 4.957534479034152 10.0
    vertex 2.8414961837066475 4.957534479034152 0.0
  endloop
endfacet
facet normal -0.2588190451025208 -0.9659258262890682 0.0
  outer loop
    vertex 2.042465520965849 6.3414961837066475 10.0
    vertex 1.7500000000000002 6.380000000000001 0.0
    vertex 2.042465520965849 6.3414961837066475 0.0
  endloop
endfacet
facet normal 1.4257775833035045e-16 -1.0 0.0
  outer loop
    vertex 1.7500000000000002 6.380000000000001 0.0
    vertex 2.042465520965849 6.3414961837066475 10.0
    vertex 1.7500000000000002 6.380000000000001 10.0
  endloop
endfacet
facet normal 0.0 0.6593458151000698 0.7518398074789766
  outer loop
    vertex 4.5 7.10876142900872 11.793353340291233
    vertex -0.5000000000000001 7.207106781186547 11.707106781186544
    vertex -0.5000000000000001 7.10876142900872 11.793353340291233
  endloop
endfacet
facet normal 0.0 0.6593458151000698 0.7518398074789766
  outer loop
    vertex -0.5000000000000001 7.207106781186547 11.707106781186544
    vertex 4.5 7.10876142900872 11.793353340291233
    vertex 4.5 7.207106781186547 11.707106781186544
  endloop
endfacet
facet normal 0.0 0.4422886902190027 0.8968727415326877
  outer loop
    vertex 4.5 6.8826834323650905 11.923879532511284
    vertex -0.5000000000000001 7.0 11.866025403784436
    vertex -0.5000000000000001 6.8826834323650905 11.923879532511284
  endloop
endfacet
facet normal 0.0 0.4422886902190027 0.8968727415326877
  outer loop
    vertex -0.5000000000000001 7.0 11.866025403784436
    vertex 4.5 6.8826834323650905 11.923879532511284
    vertex 4.5 7.0 11.866025403784436
  endloop
endfacet
facet normal -0.5000000000000003 -0.8660254037844386 0.0
  outer loop
    vertex 2.315000000000001 6.2286087062764155 10.0
    vertex 2.042465520965849 6.3414961837066475 0.0
    vertex 2.315000000000001 6.2286087062764155 0.0
  endloop
endfacet
facet normal -0.2588190451025208 -0.9659258262890682 0.0
  outer loop
    vertex 2.042465520965849 6.3414961837066475 0.0
    vertex 2.315000000000001 6.2286087062764155 10.0
    vertex 2.042465520965849 6.3414961837066475 10.0
  endloop
endfacet
facet normal 0.0 0.5555702330196023 0.8314696123025453
  outer loop
    vertex 4.5 7.0 11.866025403784436
    vertex -0.5000000000000001 7.10876142900872 11.793353340291233
    vertex -0.5000000000000001 7.0 11.866025403784436
  endloop
endfacet
facet normal 0.0 0.5555702330196023 0.8314696123025453
  outer loop
    vertex -0.5000000000000001 7.10876142900872 11.793353340291233
    vertex 4.5 7.0 11.866025403784436
    vertex 4.5 7.10876142900872 11.793353340291233
  endloop
endfacet
facet normal 0.258819045102521 -0.9659258262890683 0.0
  outer loop
    vertex 1.4575344790341525 6.3414961837066475 10.0
    vertex 1.1850000000000005 6.2286087062764155 0.0
    vertex 1.4575344790341525 6.3414961837066475 0.0
  endloop
endfacet
facet normal 0.49999999999999944 -0.8660254037844392 0.0
  outer loop
    vertex 1.1850000000000005 6.2286087062764155 0.0
    vertex 1.4575344790341525 6.3414961837066475 10.0
    vertex 1.1850000000000005 6.2286087062764155 10.0
  endloop
endfacet
facet normal 0.49999999999999944 -0.8660254037844392 0.0
  outer loop
    vertex 1.1850000000000005 6.2286087062764155 10.0
    vertex 0.9509693372592019 6.0490306627408 0.0
    vertex 1.1850000000000005 6.2286087062764155 0.0
  endloop
endfacet
facet normal 0.7071067811865468 -0.7071067811865485 0.0
  outer loop
    vertex 0.9509693372592019 6.0490306627408 0.0
    vertex 1.1850000000000005 6.2286087062764155 10.0
    vertex 0.9509693372592019 6.0490306627408 10.0
  endloop
endfacet
facet normal 0.7071067811865468 -0.7071067811865485 0.0
  outer loop
    vertex 0.9509693372592019 6.0490306627408 0.0
    vertex 0.7713912937235848 5.815000000000001 10.0
    vertex 0.7713912937235848 5.815000000000001 0.0
  endloop
endfacet
facet normal 0.8660254037844386 -0.5000000000000001 0.0
  outer loop
    vertex 0.7713912937235848 5.815000000000001 10.0
    vertex 0.9509693372592019 6.0490306627408 0.0
    vertex 0.9509693372592019 6.0490306627408 10.0
  endloop
endfacet
facet normal 0.8660254037844386 -0.5000000000000001 0.0
  outer loop
    vertex 0.7713912937235848 5.815000000000001 0.0
    vertex 0.6585038162933532 5.54246552096585 10.0
    vertex 0.6585038162933532 5.54246552096585 0.0
  endloop
endfacet
facet normal 0.9659258262890681 -0.25881904510252124 0.0
  outer loop
    vertex 0.6585038162933532 5.54246552096585 10.0
    vertex 0.7713912937235848 5.815000000000001 0.0
    vertex 0.7713912937235848 5.815000000000001 10.0
  endloop
endfacet
facet normal 0.9659258262890681 -0.25881904510252124 0.0
  outer loop
    vertex 0.6585038162933532 5.54246552096585 0.0
    vertex 0.6200000000000001 5.25 10.0
    vertex 0.6200000000000001 5.25 0.0
  endloop
endfacet
facet normal 1.0 -2.85155516660701e-16 0.0
  outer loop
    vertex 0.6200000000000001 5.25 10.0
    vertex 0.6585038162933532 5.54246552096585 0.0
    vertex 0.6585038162933532 5.54246552096585 10.0
  endloop
endfacet
facet normal 1.0 -2.85155516660701e-16 0.0
  outer loop
    vertex 0.6200000000000001 5.25 0.0
    vertex 0.6585038162933529 4.957534479034153 10.0
    vertex 0.6585038162933529 4.957534479034153 0.0
  endloop
endfacet
facet normal 0.9659258262890685 0.2588190451025202 0.0
  outer loop
    vertex 0.6585038162933529 4.957534479034153 10.0
    vertex 0.6200000000000001 5.25 0.0
    vertex 0.6200000000000001 5.25 10.0
  endloop
endfacet
facet normal -0.9659258262890682 -0.2588190451025211 0.0
  outer loop
    vertex 2.8414961837066475 5.542465520965849 10.0
    vertex 2.8800000000000003 5.25 0.0
    vertex 2.8800000000000003 5.25 10.0
  endloop
endfacet
facet normal -1.0 0.0 0.0
  outer loop
    vertex 2.8800000000000003 5.25 0.0
    vertex 2.8414961837066475 5.542465520965849 10.0
    vertex 2.8414961837066475 5.542465520965849 0.0
  endloop
endfacet
facet normal 0.9659258262890685 0.2588190451025202 0.0
  outer loop
    vertex 0.6585038162933529 4.957534479034153 0.0
    vertex 0.771391293723584 4.6850000000000005 10.0
    vertex 0.771391293723584 4.6850000000000005 0.0
  endloop
endfacet
facet normal 0.8660254037844387 0.4999999999999999 0.0
  outer loop
    vertex 0.771391293723584 4.6850000000000005 10.0
    vertex 0.6585038162933529 4.957534479034153 0.0
    vertex 0.6585038162933529 4.957534479034153 10.0
  endloop
endfacet
facet normal 0.8660254037844387 0.4999999999999999 0.0
  outer loop
    vertex 0.771391293723584 4.6850000000000005 0.0
    vertex 0.9509693372592013 4.450969337259202 10.0
    vertex 0.9509693372592013 4.450969337259202 0.0
  endloop
endfacet
facet normal 0.707106781186548 0.7071067811865471 0.0
  outer loop
    vertex 0.9509693372592013 4.450969337259202 10.0
    vertex 0.771391293723584 4.6850000000000005 0.0
    vertex 0.771391293723584 4.6850000000000005 10.0
  endloop
endfacet
facet normal 0.707106781186548 0.7071067811865471 0.0
  outer loop
    vertex 0.9509693372592013 4.450969337259202 10.0
    vertex 1.1849999999999996 4.2713912937235845 0.0
    vertex 0.9509693372592013 4.450969337259202 0.0
  endloop
endfacet
facet normal 0.5000000000000006 0.8660254037844383 0.0
  outer loop
    vertex 1.1849999999999996 4.2713912937235845 0.0
    vertex 0.9509693372592013 4.450969337259202 10.0
    vertex 1.1849999999999996 4.2713912937235845 10.0
  endloop
endfacet
facet normal 0.5000000000000006 0.8660254037844383 0.0
  outer loop
    vertex 1.1849999999999996 4.2713912937235845 10.0
    vertex 1.457534479034151 4.158503816293353 0.0
    vertex 1.1849999999999996 4.2713912937235845 0.0
  endloop
endfacet
facet normal 0.2588190451025211 0.9659258262890682 0.0
  outer loop
    vertex 1.457534479034151 4.158503816293353 0.0
    vertex 1.1849999999999996 4.2713912937235845 10.0
    vertex 1.457534479034151 4.158503816293353 10.0
  endloop
endfacet
facet normal 0.2588190451025211 0.9659258262890682 0.0
  outer loop
    vertex 1.457534479034151 4.158503816293353 10.0
    vertex 1.7500000000000002 4.12 0.0
    vertex 1.457534479034151 4.158503816293353 0.0
  endloop
endfacet
facet normal 1.0158665281037473e-15 1.0 0.0
  outer loop
    vertex 1.7500000000000002 4.12 0.0
    vertex 1.457534479034151 4.158503816293353 10.0
    vertex 1.7500000000000002 4.12 10.0
  endloop
endfacet
facet normal 0.0 0.0 -1.0
  outer loop
    vertex 0.6585038162933532 5.54246552096585 10.0
    vertex 0.6585038162933529 4.957534479034153 10.0
    vertex 0.6200000000000001 5.25 10.0
  endloop
endfacet
facet normal 0.0 0.0 -1.0
  outer loop
    vertex 0.6585038162933529 4.957534479034153 10.0
    vertex 0.6585038162933532 5.54246552096585 10.0
    vertex 0.771391293723584 4.6850000000000005 10.0
  endloop
endfacet
facet normal 0.0 0.0 -1.0
  outer loop
    vertex 0.771391293723584 4.6850000000000005 10.0
    vertex 0.6585038162933532 5.54246552096585 10.0
    vertex 0.7713912937235848 5.815000000000001 10.0
  endloop
endfacet
facet normal 0.0 0.0 -1.0
  outer loop
    vertex 0.771391293723584 4.6850000000000005 10.0
    vertex 0.7713912937235848 5.815000000000001 10.0
    vertex 0.9509693372592013 4.450969337259202 10.0
  endloop
endfacet
facet normal 0.0 0.0 -1.0
  outer loop
    vertex 0.9509693372592013 4.450969337259202 10.0
    vertex 0.7713912937235848 5.815000000000001 10.0
    vertex 0.9509693372592019 6.0490306627408 10.0
  endloop
endfacet
facet normal 0.0 0.0 -1.0
  outer loop
    vertex 0.9509693372592013 4.450969337259202 10.0
    vertex 0.9509693372592019 6.0490306627408 10.0
    vertex 1.1849999999999996 4.2713912937235845 10.0
  endloop
endfacet
facet normal 0.0 0.0 -1.0
  outer loop
    vertex 1.1849999999999996 4.2713912937235845 10.0
    vertex 0.9509693372592019 6.0490306627408 10.0
    vertex 1.1850000000000005 6.2286087062764155 10.0
  endloop
endfacet
facet normal 0.0 0.0 -1.0
  outer loop
    vertex 1.1849999999999996 4.2713912937235845 10.0
    vertex 1.1850000000000005 6.2286087062764155 10.0
    vertex 1.457534479034151 4.158503816293353 10.0
  endloop
endfacet
facet normal 0.0 0.0 -1.0
  outer loop
    vertex 1.457534479034151 4.158503816293353 10.0
    vertex 1.1850000000000005 6.2286087062764155 10.0
    vertex 1.4575344790341525 6.3414961837066475 10.0
  endloop
endfacet
facet normal 0.0 0.0 -1.0
  outer loop
    vertex 1.457534479034151 4.158503816293353 10.0
    vertex 1.4575344790341525 6.3414961837066475 10.0
    vertex 1.7500000000000002 4.12 10.0
  endloop
endfacet
facet normal 0.0 0.0 -1.0
  outer loop
    vertex 1.7500000000000002 4.12 10.0
    vertex 1.4575344790341525 6.3414961837066475 10.0
    vertex 1.7500000000000002 6.380000000000001 10.0
  endloop
endfacet
facet normal 0.0 0.0 -1.0
  outer loop
    vertex 1.7500000000000002 4.12 10.0
    vertex 1.7500000000000002 6.380000000000001 10.0
    vertex 2.042465520965849 6.3414961837066475 10.0
  endloop
endfacet
facet normal 0.0 0.0 -1.0
  outer loop
    vertex 1.7500000000000002 4.12 10.0
    vertex 2.042465520965849 6.3414961837066475 10.0
    vertex 2.042465520965849 4.1585038162933525 10.0
  endloop
endfacet
facet normal 0.0 0.0 -1.0
  outer loop
    vertex 2.042465520965849 4.1585038162933525 10.0
    vertex 2.042465520965849 6.3414961837066475 10.0
    vertex 2.315000000000001 6.2286087062764155 10.0
  endloop
endfacet
facet normal 0.0 0.0 -1.0
  outer loop
    vertex 2.042465520965849 4.1585038162933525 10.0
    vertex 2.315000000000001 6.2286087062764155 10.0
    vertex 2.3150000000000004 4.2713912937235845 10.0
  endloop
endfacet
facet normal 0.0 0.0 -1.0
  outer loop
    vertex 2.3150000000000004 4.2713912937235845 10.0
    vertex 2.315000000000001 6.2286087062764155 10.0
    vertex 2.5490306627407993 4.450969337259202 10.0
  endloop
endfacet
facet normal 0.0 0.0 -1.0
  outer loop
    vertex 2.5490306627407993 4.450969337259202 10.0
    vertex 2.315000000000001 6.2286087062764155 10.0
    vertex 2.5490306627407993 6.049030662740799 10.0
  endloop
endfacet
facet normal 0.0 0.0 -1.0
  outer loop
    vertex 2.5490306627407993 4.450969337259202 10.0
    vertex 2.5490306627407993 6.049030662740799 10.0
    vertex 2.728608706276416 5.815 10.0
  endloop
endfacet
facet normal 0.0 0.0 -1.0
  outer loop
    vertex 2.5490306627407993 4.450969337259202 10.0
    vertex 2.728608706276416 5.815 10.0
    vertex 2.728608706276416 4.6850000000000005 10.0
  endloop
endfacet
facet normal 0.0 0.0 -1.0
  outer loop
    vertex 2.728608706276416 4.6850000000000005 10.0
    vertex 2.728608706276416 5.815 10.0
    vertex 2.8414961837066475 5.542465520965849 10.0
  endloop
endfacet
facet normal 0.0 0.0 -1.0
  outer loop
    vertex 2.728608706276416 4.6850000000000005 10.0
    vertex 2.8414961837066475 5.542465520965849 10.0
    vertex 2.8414961837066475 4.957534479034152 10.0
  endloop
endfacet
facet normal 0.0 0.0 -1.0
  outer loop
    vertex 2.8414961837066475 4.957534479034152 10.0
    vertex 2.8414961837066475 5.542465520965849 10.0
    vertex 2.8800000000000003 5.25 10.0
  endloop
endfacet
facet normal -0.7071067811865479 -0.7071067811865474 0.0
  outer loop
    vertex 2.5490306627407993 6.049030662740799 10.0
    vertex 2.728608706276416 5.815 0.0
    vertex 2.728608706276416 5.815 10.0
  endloop
endfacet
facet normal -0.8660254037844388 -0.4999999999999998 0.0
  outer loop
    vertex 2.728608706276416 5.815 0.0
    vertex 2.5490306627407993 6.049030662740799 10.0
    vertex 2.5490306627407993 6.049030662740799 0.0
  endloop
endfacet
facet normal -0.009559950051249402 -0.999954302633384 0.0
  outer loop
    vertex 2.2608027435579117 2.8799483619757242 23.999999999999986
    vertex 1.9679824929356504 2.844242260977527 13.999999999999986
    vertex 2.2608027435579117 2.8799483619757242 13.999999999999986
  endloop
endfacet
facet normal 0.2495730151011944 -0.9683559831659527 0.0
  outer loop
    vertex 1.9679824929356504 2.844242260977527 13.999999999999986
    vertex 2.2608027435579117 2.8799483619757242 23.999999999999986
    vertex 1.9679824929356504 2.844242260977527 23.999999999999986
  endloop
endfacet
facet normal 0.4916979917134003 -0.8707658037296877 0.0
  outer loop
    vertex 1.694381269363858 2.7339653582145473 23.999999999999986
    vertex 1.4586445440815528 2.556632842368885 13.999999999999986
    vertex 1.694381269363858 2.7339653582145473 13.999999999999986
  endloop
endfacet
facet normal 0.7003145627596885 -0.7138343737777737 0.0
  outer loop
    vertex 1.4586445440815528 2.556632842368885 13.999999999999986
    vertex 1.694381269363858 2.7339653582145473 23.999999999999986
    vertex 1.4586445440815528 2.556632842368885 23.999999999999986
  endloop
endfacet
facet normal 0.7003145627596885 -0.7138343737777737 0.0
  outer loop
    vertex 1.4586445440815528 2.556632842368885 13.999999999999986
    vertex 1.276837385343364 2.3243296313395816 23.999999999999986
    vertex 1.276837385343364 2.3243296313395816 13.999999999999986
  endloop
endfacet
facet normal 0.8612058536784389 -0.5082563109199839 0.0
  outer loop
    vertex 1.276837385343364 2.3243296313395816 23.999999999999986
    vertex 1.4586445440815528 2.556632842368885 13.999999999999986
    vertex 1.4586445440815528 2.556632842368885 23.999999999999986
  endloop
endfacet
facet normal -0.26804142040626416 -0.9634073888789686 0.0
  outer loop
    vertex 2.552886805059079 2.8386503494332347 23.999999999999986
    vertex 2.2608027435579117 2.8799483619757242 13.999999999999986
    vertex 2.552886805059079 2.8386503494332347 13.999999999999986
  endloop
endfacet
facet normal -0.009559950051249402 -0.999954302633384 0.0
  outer loop
    vertex 2.2608027435579117 2.8799483619757242 13.999999999999986
    vertex 2.552886805059079 2.8386503494332347 23.999999999999986
    vertex 2.2608027435579117 2.8799483619757242 23.999999999999986
  endloop
endfacet
facet normal 0.2495730151011944 -0.9683559831659527 0.0
  outer loop
    vertex 1.9679824929356504 2.844242260977527 23.999999999999986
    vertex 1.694381269363858 2.7339653582145473 13.999999999999986
    vertex 1.9679824929356504 2.844242260977527 13.999999999999986
  endloop
endfacet
facet normal 0.4916979917134003 -0.8707658037296877 0.0
  outer loop
    vertex 1.694381269363858 2.7339653582145473 13.999999999999986
    vertex 1.9679824929356504 2.844242260977527 23.999999999999986
    vertex 1.694381269363858 2.7339653582145473 23.999999999999986
  endloop
endfacet
facet normal -0.0 -0.32143946530316136 -0.9469301294951058
  outer loop
    vertex 4.5 0.2411809548974791 0.03407417371093175
    vertex -0.49999999999999906 0.11731656763491005 0.07612046748871326
    vertex -0.49999999999999906 0.2411809548974791 0.03407417371093175
  endloop
endfacet
facet normal -0.0 -0.32143946530316136 -0.9469301294951058
  outer loop
    vertex -0.49999999999999906 0.11731656763491005 0.07612046748871326
    vertex 4.5 0.2411809548974791 0.03407417371093175
    vertex 4.5 0.11731656763491005 0.07612046748871326
  endloop
endfacet
facet normal -0.0 -0.8314696123025455 -0.555570233019602
  outer loop
    vertex 4.5 -0.36602540378443865 0.49999999999999994
    vertex -0.49999999999999906 -0.2933533402912353 0.39123857099127934
    vertex 4.5 -0.2933533402912353 0.39123857099127934
  endloop
endfacet
facet normal -0.0 -0.8314696123025455 -0.555570233019602
  outer loop
    vertex -0.49999999999999906 -0.2933533402912353 0.39123857099127934
    vertex 4.5 -0.36602540378443865 0.49999999999999994
    vertex -0.49999999999999906 -0.36602540378443865 0.49999999999999994
  endloop
endfacet
facet normal -0.0 -0.8968727415326885 -0.4422886902190011
  outer loop
    vertex 4.5 -0.4238795325112867 0.61731656763491
    vertex -0.49999999999999906 -0.36602540378443865 0.49999999999999994
    vertex 4.5 -0.36602540378443865 0.49999999999999994
  endloop
endfacet
facet normal -0.0 -0.8968727415326885 -0.4422886902190011
  outer loop
    vertex -0.49999999999999906 -0.36602540378443865 0.49999999999999994
    vertex 4.5 -0.4238795325112867 0.61731656763491
    vertex -0.49999999999999906 -0.4238795325112867 0.61731656763491
  endloop
endfacet
facet normal -0.0 -0.9469301294951057 -0.3214394653031615
  outer loop
    vertex 4.5 -0.4659258262890682 0.7411809548974791
    vertex -0.49999999999999906 -0.4238795325112867 0.61731656763491
    vertex 4.5 -0.4238795325112867 0.61731656763491
  endloop
endfacet
facet normal -0.0 -0.9469301294951057 -0.3214394653031615
  outer loop
    vertex -0.49999999999999906 -0.4238795325112867 0.61731656763491
    vertex 4.5 -0.4659258262890682 0.7411809548974791
    vertex -0.49999999999999906 -0.4659258262890682 0.7411809548974791
  endloop
endfacet
facet normal 2.7292506829174204e-19 0.1950903220161292 0.9807852804032302
  outer loop
    vertex 4.5 6.63052619222005 11.99144486137381
    vertex -0.5000000000000001 6.758819045102521 11.965925826289066
    vertex -0.5000000000000001 6.63052619222005 11.99144486137381
  endloop
endfacet
facet normal 2.7292506829174204e-19 0.1950903220161292 0.9807852804032302
  outer loop
    vertex -0.5000000000000001 6.758819045102521 11.965925826289066
    vertex 4.5 6.63052619222005 11.99144486137381
    vertex 4.5 6.758819045102521 11.965925826289066
  endloop
endfacet
facet normal -0.0 -0.7518398074789777 -0.6593458151000686
  outer loop
    vertex 4.5 -0.2933533402912353 0.39123857099127934
    vertex -0.49999999999999906 -0.20710678118654774 0.2928932188134525
    vertex 4.5 -0.20710678118654774 0.2928932188134525
  endloop
endfacet
facet normal -0.0 -0.7518398074789777 -0.6593458151000686
  outer loop
    vertex -0.49999999999999906 -0.20710678118654774 0.2928932188134525
    vertex 4.5 -0.2933533402912353 0.39123857099127934
    vertex -0.49999999999999906 -0.2933533402912353 0.39123857099127934
  endloop
endfacet
facet normal -2.7292506829174204e-19 0.9807852804032302 0.1950903220161292
  outer loop
    vertex -0.5000000000000001 7.465925826289069 11.258819045102518
    vertex 4.5 7.491444861373811 11.130526192220048
    vertex -0.5000000000000001 7.491444861373811 11.130526192220048
  endloop
endfacet
facet normal -2.7292506829174204e-19 0.9807852804032302 0.1950903220161292
  outer loop
    vertex 4.5 7.491444861373811 11.130526192220048
    vertex -0.5000000000000001 7.465925826289069 11.258819045102518
    vertex 4.5 7.465925826289069 11.258819045102518
  endloop
endfacet
facet normal -0.0 -0.6593458151000686 -0.7518398074789776
  outer loop
    vertex 4.5 -0.10876142900872082 0.2066466597087649
    vertex -0.49999999999999906 -0.20710678118654774 0.2928932188134525
    vertex -0.49999999999999906 -0.10876142900872082 0.2066466597087649
  endloop
endfacet
facet normal -0.0 -0.6593458151000686 -0.7518398074789776
  outer loop
    vertex -0.49999999999999906 -0.20710678118654774 0.2928932188134525
    vertex 4.5 -0.10876142900872082 0.2066466597087649
    vertex 4.5 -0.20710678118654774 0.2928932188134525
  endloop
endfacet
facet normal -0.0 -0.5555702330196028 -0.8314696123025448
  outer loop
    vertex 4.5 -1.762479051592436e-16 0.1339745962155613
    vertex -0.49999999999999906 -0.10876142900872082 0.2066466597087649
    vertex -0.49999999999999906 -1.762479051592436e-16 0.1339745962155613
  endloop
endfacet
facet normal -0.0 -0.5555702330196028 -0.8314696123025448
  outer loop
    vertex -0.49999999999999906 -0.10876142900872082 0.2066466597087649
    vertex 4.5 -1.762479051592436e-16 0.1339745962155613
    vertex 4.5 -0.10876142900872082 0.2066466597087649
  endloop
endfacet
facet normal -0.0 -0.44228869021900075 -0.8968727415326885
  outer loop
    vertex 4.5 0.11731656763491005 0.07612046748871326
    vertex -0.49999999999999906 -1.762479051592436e-16 0.1339745962155613
    vertex -0.49999999999999906 0.11731656763491005 0.07612046748871326
  endloop
endfacet
facet normal -0.0 -0.44228869021900075 -0.8968727415326885
  outer loop
    vertex -0.49999999999999906 -1.762479051592436e-16 0.1339745962155613
    vertex 4.5 0.11731656763491005 0.07612046748871326
    vertex 4.5 -1.762479051592436e-16 0.1339745962155613
  endloop
endfacet
facet normal 0.0 -0.9807852804032304 -0.1950903220161279
  outer loop
    vertex 4.5 -0.49144486137381027 0.8694738077799483
    vertex -0.49999999999999906 -0.4659258262890682 0.7411809548974791
    vertex 4.5 -0.4659258262890682 0.7411809548974791
  endloop
endfacet
facet normal 0.0 -0.9807852804032304 -0.1950903220161279
  outer loop
    vertex -0.49999999999999906 -0.4659258262890682 0.7411809548974791
    vertex 4.5 -0.49144486137381027 0.8694738077799483
    vertex -0.49999999999999906 -0.49144486137381027 0.8694738077799483
  endloop
endfacet
facet normal 0.0 0.3214394653031638 0.9469301294951048
  outer loop
    vertex 4.5 6.758819045102521 11.965925826289066
    vertex -0.5000000000000001 6.8826834323650905 11.923879532511284
    vertex -0.5000000000000001 6.758819045102521 11.965925826289066
  endloop
endfacet
facet normal 0.0 0.3214394653031638 0.9469301294951048
  outer loop
    vertex -0.5000000000000001 6.8826834323650905 11.923879532511284
    vertex 4.5 6.758819045102521 11.965925826289066
    vertex 4.5 6.8826834323650905 11.923879532511284
  endloop
endfacet
facet normal 0.00955995005124852 0.999954302633384 0.0
  outer loop
    vertex 2.239197256442089 0.6200516380242763 23.999999999999986
    vertex 2.5320175070643502 0.655757739022474 13.999999999999986
    vertex 2.239197256442089 0.6200516380242763 13.999999999999986
  endloop
endfacet
facet normal -0.24957301510119523 0.9683559831659527 0.0
  outer loop
    vertex 2.5320175070643502 0.655757739022474 13.999999999999986
    vertex 2.239197256442089 0.6200516380242763 23.999999999999986
    vertex 2.5320175070643502 0.655757739022474 23.999999999999986
  endloop
endfacet
facet normal 0.26804142040626416 0.9634073888789688 0.0
  outer loop
    vertex 1.9471131949409215 0.6613496505667659 23.999999999999986
    vertex 2.239197256442089 0.6200516380242763 13.999999999999986
    vertex 1.9471131949409215 0.6613496505667659 13.999999999999986
  endloop
endfacet
facet normal 0.00955995005124852 0.999954302633384 0.0
  outer loop
    vertex 2.239197256442089 0.6200516380242763 13.999999999999986
    vertex 1.9471131949409215 0.6613496505667659 23.999999999999986
    vertex 2.239197256442089 0.6200516380242763 23.999999999999986
  endloop
endfacet
facet normal 0.5082563109199837 0.861205853678439 0.0
  outer loop
    vertex 1.6756703686604189 0.7768373853433642 23.999999999999986
    vertex 1.9471131949409215 0.6613496505667659 13.999999999999986
    vertex 1.6756703686604189 0.7768373853433642 13.999999999999986
  endloop
endfacet
facet normal 0.26804142040626416 0.9634073888789688 0.0
  outer loop
    vertex 1.9471131949409215 0.6613496505667659 13.999999999999986
    vertex 1.6756703686604189 0.7768373853433642 23.999999999999986
    vertex 1.9471131949409215 0.6613496505667659 23.999999999999986
  endloop
endfacet
facet normal 0.7138343737777736 0.7003145627596885 0.0
  outer loop
    vertex 1.4433671576311158 0.9586445440815525 23.999999999999986
    vertex 1.6756703686604189 0.7768373853433642 13.999999999999986
    vertex 1.4433671576311158 0.9586445440815525 13.999999999999986
  endloop
endfacet
facet normal 0.5082563109199837 0.861205853678439 0.0
  outer loop
    vertex 1.6756703686604189 0.7768373853433642 13.999999999999986
    vertex 1.4433671576311158 0.9586445440815525 23.999999999999986
    vertex 1.6756703686604189 0.7768373853433642 23.999999999999986
  endloop
endfacet
facet normal 0.8707658037296876 0.4916979917134004 0.0
  outer loop
    vertex 1.266034641785453 1.194381269363858 13.999999999999986
    vertex 1.4433671576311158 0.9586445440815525 23.999999999999986
    vertex 1.4433671576311158 0.9586445440815525 13.999999999999986
  endloop
endfacet
facet normal 0.7138343737777736 0.7003145627596885 0.0
  outer loop
    vertex 1.4433671576311158 0.9586445440815525 23.999999999999986
    vertex 1.266034641785453 1.194381269363858 13.999999999999986
    vertex 1.266034641785453 1.194381269363858 23.999999999999986
  endloop
endfacet
facet normal 0.9683559831659527 0.24957301510119503 0.0
  outer loop
    vertex 1.1557577390224738 1.4679824929356495 13.999999999999986
    vertex 1.266034641785453 1.194381269363858 23.999999999999986
    vertex 1.266034641785453 1.194381269363858 13.999999999999986
  endloop
endfacet
facet normal 0.8707658037296876 0.4916979917134004 0.0
  outer loop
    vertex 1.266034641785453 1.194381269363858 23.999999999999986
    vertex 1.1557577390224738 1.4679824929356495 13.999999999999986
    vertex 1.1557577390224738 1.4679824929356495 23.999999999999986
  endloop
endfacet
facet normal 0.999954302633384 -0.009559950051248654 0.0
  outer loop
    vertex 1.1200516380242762 1.7608027435579114 13.999999999999986
    vertex 1.1557577390224738 1.4679824929356495 23.999999999999986
    vertex 1.1557577390224738 1.4679824929356495 13.999999999999986
  endloop
endfacet
facet normal 0.9683559831659527 0.24957301510119503 0.0
  outer loop
    vertex 1.1557577390224738 1.4679824929356495 23.999999999999986
    vertex 1.1200516380242762 1.7608027435579114 13.999999999999986
    vertex 1.1200516380242762 1.7608027435579114 23.999999999999986
  endloop
endfacet
facet normal 0.9634073888789687 -0.2680414204062644 0.0
  outer loop
    vertex 1.1613496505667655 2.052886805059079 13.999999999999986
    vertex 1.1200516380242762 1.7608027435579114 23.999999999999986
    vertex 1.1200516380242762 1.7608027435579114 13.999999999999986
  endloop
endfacet
facet normal 0.999954302633384 -0.009559950051248654 0.0
  outer loop
    vertex 1.1200516380242762 1.7608027435579114 23.999999999999986
    vertex 1.1613496505667655 2.052886805059079 13.999999999999986
    vertex 1.1613496505667655 2.052886805059079 23.999999999999986
  endloop
endfacet
facet normal 0.8612058536784389 -0.5082563109199839 0.0
  outer loop
    vertex 1.276837385343364 2.3243296313395816 13.999999999999986
    vertex 1.1613496505667655 2.052886805059079 23.999999999999986
    vertex 1.1613496505667655 2.052886805059079 13.999999999999986
  endloop
endfacet
facet normal 0.9634073888789687 -0.2680414204062644 0.0
  outer loop
    vertex 1.1613496505667655 2.052886805059079 23.999999999999986
    vertex 1.276837385343364 2.3243296313395816 13.999999999999986
    vertex 1.276837385343364 2.3243296313395816 23.999999999999986
  endloop
endfacet
facet normal 0.0 0.0 1.0
  outer loop
    vertex 1.1557577390224738 1.4679824929356495 13.999999999999986
    vertex 1.1613496505667655 2.052886805059079 13.999999999999986
    vertex 1.1200516380242762 1.7608027435579114 13.999999999999986
  endloop
endfacet
facet normal 0.0 0.0 1.0
  outer loop
    vertex 1.1613496505667655 2.052886805059079 13.999999999999986
    vertex 1.1557577390224738 1.4679824929356495 13.999999999999986
    vertex 1.266034641785453 1.194381269363858 13.999999999999986
  endloop
endfacet
facet normal 0.0 0.0 1.0
  outer loop
    vertex 1.1613496505667655 2.052886805059079 13.999999999999986
    vertex 1.266034641785453 1.194381269363858 13.999999999999986
    vertex 1.276837385343364 2.3243296313395816 13.999999999999986
  endloop
endfacet
facet normal 0.0 0.0 1.0
  outer loop
    vertex 1.276837385343364 2.3243296313395816 13.999999999999986
    vertex 1.266034641785453 1.194381269363858 13.999999999999986
    vertex 1.4433671576311158 0.9586445440815525 13.999999999999986
  endloop
endfacet
facet normal 0.0 0.0 1.0
  outer loop
    vertex 1.276837385343364 2.3243296313395816 13.999999999999986
    vertex 1.4433671576311158 0.9586445440815525 13.999999999999986
    vertex 1.4586445440815528 2.556632842368885 13.999999999999986
  endloop
endfacet
facet normal 0.0 0.0 1.0
  outer loop
    vertex 1.4586445440815528 2.556632842368885 13.999999999999986
    vertex 1.4433671576311158 0.9586445440815525 13.999999999999986
    vertex 1.6756703686604189 0.7768373853433642 13.999999999999986
  endloop
endfacet
facet normal 0.0 0.0 1.0
  outer loop
    vertex 1.4586445440815528 2.556632842368885 13.999999999999986
    vertex 1.6756703686604189 0.7768373853433642 13.999999999999986
    vertex 1.694381269363858 2.7339653582145473 13.999999999999986
  endloop
endfacet
facet normal 0.0 0.0 1.0
  outer loop
    vertex 1.694381269363858 2.7339653582145473 13.999999999999986
    vertex 1.6756703686604189 0.7768373853433642 13.999999999999986
    vertex 1.9471131949409215 0.6613496505667659 13.999999999999986
  endloop
endfacet
facet normal 0.0 0.0 1.0
  outer loop
    vertex 1.694381269363858 2.7339653582145473 13.999999999999986
    vertex 1.9471131949409215 0.6613496505667659 13.999999999999986
    vertex 1.9679824929356504 2.844242260977527 13.999999999999986
  endloop
endfacet
facet normal 0.0 0.0 1.0
  outer loop
    vertex 1.9679824929356504 2.844242260977527 13.999999999999986
    vertex 1.9471131949409215 0.6613496505667659 13.999999999999986
    vertex 2.239197256442089 0.6200516380242763 13.999999999999986
  endloop
endfacet
facet normal 0.0 0.0 1.0
  outer loop
    vertex 1.9679824929356504 2.844242260977527 13.999999999999986
    vertex 2.239197256442089 0.6200516380242763 13.999999999999986
    vertex 2.2608027435579117 2.8799483619757242 13.999999999999986
  endloop
endfacet
facet normal 0.0 0.0 1.0
  outer loop
    vertex 2.2608027435579117 2.8799483619757242 13.999999999999986
    vertex 2.239197256442089 0.6200516380242763 13.999999999999986
    vertex 2.5320175070643502 0.655757739022474 13.999999999999986
  endloop
endfacet
facet normal 0.0 0.0 1.0
  outer loop
    vertex 2.2608027435579117 2.8799483619757242 13.999999999999986
    vertex 2.5320175070643502 0.655757739022474 13.999999999999986
    vertex 2.552886805059079 2.8386503494332347 13.999999999999986
  endloop
endfacet
facet normal 0.0 0.0 1.0
  outer loop
    vertex 2.552886805059079 2.8386503494332347 13.999999999999986
    vertex 2.5320175070643502 0.655757739022474 13.999999999999986
    vertex 2.805618730636142 0.7660346417854536 13.999999999999986
  endloop
endfacet
facet normal 0.0 0.0 1.0
  outer loop
    vertex 2.552886805059079 2.8386503494332347 13.999999999999986
    vertex 2.805618730636142 0.7660346417854536 13.999999999999986
    vertex 2.824329631339582 2.723162614656636 13.999999999999986
  endloop
endfacet
facet normal 0.0 0.0 1.0
  outer loop
    vertex 2.824329631339582 2.723162614656636 13.999999999999986
    vertex 2.805618730636142 0.7660346417854536 13.999999999999986
    vertex 3.0413554559184477 0.9433671576311159 13.999999999999986
  endloop
endfacet
facet normal 0.0 0.0 1.0
  outer loop
    vertex 2.824329631339582 2.723162614656636 13.999999999999986
    vertex 3.0413554559184477 0.9433671576311159 13.999999999999986
    vertex 3.056632842368885 2.5413554559184477 13.999999999999986
  endloop
endfacet
facet normal 0.0 0.0 1.0
  outer loop
    vertex 3.056632842368885 2.5413554559184477 13.999999999999986
    vertex 3.0413554559184477 0.9433671576311159 13.999999999999986
    vertex 3.223162614656636 1.1756703686604186 13.999999999999986
  endloop
endfacet
facet normal 0.0 0.0 1.0
  outer loop
    vertex 3.056632842368885 2.5413554559184477 13.999999999999986
    vertex 3.223162614656636 1.1756703686604186 13.999999999999986
    vertex 3.2339653582145473 2.305618730636142 13.999999999999986
  endloop
endfacet
facet normal 0.0 0.0 1.0
  outer loop
    vertex 3.2339653582145473 2.305618730636142 13.999999999999986
    vertex 3.223162614656636 1.1756703686604186 13.999999999999986
    vertex 3.3386503494332342 1.4471131949409217 13.999999999999986
  endloop
endfacet
facet normal 0.0 0.0 1.0
  outer loop
    vertex 3.2339653582145473 2.305618730636142 13.999999999999986
    vertex 3.3386503494332342 1.4471131949409217 13.999999999999986
    vertex 3.3442422609775266 2.0320175070643502 13.999999999999986
  endloop
endfacet
facet normal 0.0 0.0 1.0
  outer loop
    vertex 3.3442422609775266 2.0320175070643502 13.999999999999986
    vertex 3.3386503494332342 1.4471131949409217 13.999999999999986
    vertex 3.3799483619757242 1.739197256442089 13.999999999999986
  endloop
endfacet
facet normal -0.4916979917134003 0.8707658037296877 0.0
  outer loop
    vertex 2.805618730636142 0.7660346417854536 23.999999999999986
    vertex 3.0413554559184477 0.9433671576311159 13.999999999999986
    vertex 2.805618730636142 0.7660346417854536 13.999999999999986
  endloop
endfacet
facet normal -0.7003145627596878 0.7138343737777744 0.0
  outer loop
    vertex 3.0413554559184477 0.9433671576311159 13.999999999999986
    vertex 2.805618730636142 0.7660346417854536 23.999999999999986
    vertex 3.0413554559184477 0.9433671576311159 23.999999999999986
  endloop
endfacet
facet normal -0.24957301510119523 0.9683559831659527 0.0
  outer loop
    vertex 2.5320175070643502 0.655757739022474 23.999999999999986
    vertex 2.805618730636142 0.7660346417854536 13.999999999999986
    vertex 2.5320175070643502 0.655757739022474 13.999999999999986
  endloop
endfacet
facet normal -0.4916979917134003 0.8707658037296877 0.0
  outer loop
    vertex 2.805618730636142 0.7660346417854536 13.999999999999986
    vertex 2.5320175070643502 0.655757739022474 23.999999999999986
    vertex 2.805618730636142 0.7660346417854536 23.999999999999986
  endloop
endfacet
facet normal -0.5082563109199841 -0.8612058536784388 0.0
  outer loop
    vertex 2.824329631339582 2.723162614656636 23.999999999999986
    vertex 2.552886805059079 2.8386503494332347 13.999999999999986
    vertex 2.824329631339582 2.723162614656636 13.999999999999986
  endloop
endfacet
facet normal -0.26804142040626416 -0.9634073888789686 0.0
  outer loop
    vertex 2.552886805059079 2.8386503494332347 13.999999999999986
    vertex 2.824329631339582 2.723162614656636 23.999999999999986
    vertex 2.552886805059079 2.8386503494332347 23.999999999999986
  endloop
endfacet
facet normal -0.7138343737777741 -0.7003145627596881 0.0
  outer loop
    vertex 3.056632842368885 2.5413554559184477 23.999999999999986
    vertex 2.824329631339582 2.723162614656636 13.999999999999986
    vertex 3.056632842368885 2.5413554559184477 13.999999999999986
  endloop
endfacet
facet normal -0.5082563109199841 -0.8612058536784388 0.0
  outer loop
    vertex 2.824329631339582 2.723162614656636 13.999999999999986
    vertex 3.056632842368885 2.5413554559184477 23.999999999999986
    vertex 2.824329631339582 2.723162614656636 23.999999999999986
  endloop
endfacet
facet normal -0.7138343737777741 -0.7003145627596881 0.0
  outer loop
    vertex 3.056632842368885 2.5413554559184477 23.999999999999986
    vertex 3.2339653582145473 2.305618730636142 13.999999999999986
    vertex 3.2339653582145473 2.305618730636142 23.999999999999986
  endloop
endfacet
facet normal -0.8707658037296876 -0.4916979917134004 0.0
  outer loop
    vertex 3.2339653582145473 2.305618730636142 13.999999999999986
    vertex 3.056632842368885 2.5413554559184477 23.999999999999986
    vertex 3.056632842368885 2.5413554559184477 13.999999999999986
  endloop
endfacet
facet normal -0.8707658037296876 -0.4916979917134004 0.0
  outer loop
    vertex 3.2339653582145473 2.305618730636142 23.999999999999986
    vertex 3.3442422609775266 2.0320175070643502 13.999999999999986
    vertex 3.3442422609775266 2.0320175070643502 23.999999999999986
  endloop
endfacet
facet normal -0.9683559831659528 -0.24957301510119465 0.0
  outer loop
    vertex 3.3442422609775266 2.0320175070643502 13.999999999999986
    vertex 3.2339653582145473 2.305618730636142 23.999999999999986
    vertex 3.2339653582145473 2.305618730636142 13.999999999999986
  endloop
endfacet
facet normal -0.999954302633384 0.009559950051249402 0.0
  outer loop
    vertex 3.3799483619757242 1.739197256442089 23.999999999999986
    vertex 3.3386503494332342 1.4471131949409217 13.999999999999986
    vertex 3.3386503494332342 1.4471131949409217 23.999999999999986
  endloop
endfacet
facet normal -0.9634073888789688 0.26804142040626416 0.0
  outer loop
    vertex 3.3386503494332342 1.4471131949409217 13.999999999999986
    vertex 3.3799483619757242 1.739197256442089 23.999999999999986
    vertex 3.3799483619757242 1.739197256442089 13.999999999999986
  endloop
endfacet
facet normal -0.9683559831659528 -0.24957301510119465 0.0
  outer loop
    vertex 3.3442422609775266 2.0320175070643502 23.999999999999986
    vertex 3.3799483619757242 1.739197256442089 13.999999999999986
    vertex 3.3799483619757242 1.739197256442089 23.999999999999986
  endloop
endfacet
facet normal -0.999954302633384 0.009559950051249402 0.0
  outer loop
    vertex 3.3799483619757242 1.739197256442089 13.999999999999986
    vertex 3.3442422609775266 2.0320175070643502 23.999999999999986
    vertex 3.3442422609775266 2.0320175070643502 13.999999999999986
  endloop
endfacet
facet normal -0.8612058536784388 0.5082563109199841 0.0
  outer loop
    vertex 3.223162614656636 1.1756703686604186 23.999999999999986
    vertex 3.0413554559184477 0.9433671576311159 13.999999999999986
    vertex 3.0413554559184477 0.9433671576311159 23.999999999999986
  endloop
endfacet
facet normal -0.7003145627596878 0.7138343737777744 0.0
  outer loop
    vertex 3.0413554559184477 0.9433671576311159 13.999999999999986
    vertex 3.223162614656636 1.1756703686604186 23.999999999999986
    vertex 3.223162614656636 1.1756703686604186 13.999999999999986
  endloop
endfacet
facet normal -0.9634073888789688 0.26804142040626416 0.0
  outer loop
    vertex 3.3386503494332342 1.4471131949409217 23.999999999999986
    vertex 3.223162614656636 1.1756703686604186 13.999999999999986
    vertex 3.223162614656636 1.1756703686604186 23.999999999999986
  endloop
endfacet
facet normal -0.8612058536784388 0.5082563109199841 0.0
  outer loop
    vertex 3.223162614656636 1.1756703686604186 13.999999999999986
    vertex 3.3386503494332342 1.4471131949409217 23.999999999999986
    vertex 3.3386503494332342 1.4471131949409217 13.999999999999986
  endloop
endfacet
endsolid v1.1_ScreenSupport
